<svg width="85" height="40" viewBox="0 0 85 40" fill="none" xmlns="http://www.w3.org/2000/svg">
<path d="M24.2658 4.10239C23.9415 3.60575 23.4677 3.59149 22.9279 3.57523C22.8667 3.57339 22.8047 3.57153 22.7419 3.56893C22.6942 3.56673 22.6414 3.56758 22.5863 3.56846C22.3674 3.57198 22.1112 3.57609 21.9822 3.39212C21.8326 3.17883 21.8468 2.76663 21.8585 2.42635C21.8622 2.31882 21.8657 2.21841 21.8636 2.1338C21.8426 1.34332 21.7988 0.503628 21.4936 0.22292C21.2635 0.0123098 20.5751 0.041487 19.9403 0.0683954C19.7345 0.0771184 19.5343 0.085603 19.3572 0.085603H5.8443C5.57223 0.085603 5.28703 0.0634489 5.00681 0.0416813C4.46079 -0.000733803 3.93367 -0.0416812 3.55934 0.085603C3.01609 0.271231 2.9793 1.24667 2.94467 2.16519L2.9428 2.21461C2.91372 2.97288 2.7258 3.55799 2.10299 3.49906C1.37863 3.43161 0.657836 3.41035 0.330327 4.06594C-0.0564702 4.84161 0.0233024 5.65358 0.166187 7.10792C0.186598 7.31567 0.208296 7.53652 0.230106 7.77225H24.4748C24.4886 7.59995 24.5034 7.42986 24.5179 7.26253C24.6314 5.95406 24.7304 4.81402 24.2658 4.10239Z" fill="#8047F8"/>
<path fill-rule="evenodd" clip-rule="evenodd" d="M2.11821 9.21467C2.49686 14.3395 2.87138 19.4701 3.24591 24.6009L3.24614 24.604C3.44949 27.3898 3.65285 30.1757 3.85687 32.9606H4.63046C4.68317 33.3965 4.74349 33.9347 4.80708 34.5021C4.93617 35.6539 5.07878 36.9264 5.19868 37.7083H5.28424C6.07221 37.42 11.5195 35.0916 11.5219 25.8218C11.5209 25.7954 11.5218 25.7689 11.5246 25.7427H10.1788C10.1136 25.7421 10.0505 25.7203 9.99904 25.6808C9.94761 25.6413 9.91075 25.5861 9.89411 25.5238C9.76297 25.1999 9.65722 24.8664 9.57782 24.5264C8.78611 24.9736 8.1574 25.6564 7.7813 26.4775C7.42428 25.6365 7.37755 24.6983 7.64927 23.8267C7.921 22.9551 8.4939 22.2057 9.26786 21.7093C9.27783 19.0043 10.2906 16.3968 12.1145 14.3804L12.1429 14.3553C12.1959 14.3095 12.2638 14.284 12.3342 14.2834C12.3749 14.2838 12.4151 14.2925 12.4522 14.309C12.4898 14.3257 12.5235 14.35 12.5509 14.3804C14.3961 16.3996 15.4035 19.0321 15.3723 21.7531C16.1607 22.2356 16.7452 22.9845 17.0174 23.8608C17.2897 24.7371 17.2311 25.6813 16.8525 26.5181C16.4784 25.6957 15.8492 25.0123 15.056 24.5671C15.0075 24.8966 14.9183 25.219 14.7903 25.527C14.746 25.6583 14.6574 25.7427 14.5689 25.7427H13.1337C13.1359 25.7584 13.1375 25.7742 13.1385 25.7901L13.139 25.7937V25.8014C13.1395 25.815 13.1395 25.8287 13.1391 25.8424C13.1587 35.3783 18.9503 37.5428 19.4386 37.7083H19.6055C19.6482 36.9572 19.7869 35.9208 19.9222 34.9104C20.0155 34.2142 20.107 33.5302 20.1644 32.9606H20.9469C21.1974 29.4527 21.455 25.9546 21.7126 22.4564L21.7127 22.4545L21.7128 22.4535C22.0423 17.9789 22.3719 13.5042 22.6864 9.0087H2.16832C2.10926 9.02024 2.11329 9.11685 2.11821 9.21467ZM12.3342 14.2834L12.3327 14.2834H12.3359L12.3342 14.2834Z" fill="#8047F8"/>
<path d="M31.3571 5.69821C31.3571 4.43316 31.7929 3.45274 32.6646 2.75696C33.5521 2.04537 34.8833 1.68958 36.6583 1.68958C37.831 1.68958 38.8294 1.80027 39.6535 2.02165V5.29498C38.766 5.02615 37.8865 4.89174 37.0148 4.89174C36.159 4.89174 35.6044 4.99453 35.3508 5.2001C35.0972 5.38985 34.9704 5.67449 34.9704 6.05401V14.0238C34.9704 14.7829 35.5647 15.1624 36.7533 15.1624C37.9578 15.1624 38.9483 15.0438 39.7248 14.8066V18.0088C38.869 18.246 37.831 18.3646 36.6107 18.3646C34.8357 18.3646 33.5124 18.0167 32.6408 17.3209C31.785 16.6251 31.3571 15.6447 31.3571 14.3796V5.69821Z" fill="#403937"/>
<path d="M46.6688 7.95159C46.6688 7.35069 46.336 7.05024 45.6704 7.05024C45.0048 7.05024 44.672 7.35069 44.672 7.95159V14.5457C44.672 15.1466 45.0048 15.447 45.6704 15.447C46.336 15.447 46.6688 15.1466 46.6688 14.5457V7.95159ZM41.1537 7.83299C41.1537 6.63119 41.5262 5.69821 42.271 5.03406C43.0317 4.35409 44.1648 4.01411 45.6704 4.01411C47.1759 4.01411 48.3012 4.35409 49.046 5.03406C49.8067 5.69821 50.187 6.63119 50.187 7.83299V14.6643C50.187 15.8661 49.8067 16.807 49.046 17.4869C48.3012 18.1511 47.1759 18.4832 45.6704 18.4832C44.1648 18.4832 43.0317 18.1511 42.271 17.4869C41.5262 16.807 41.1537 15.8661 41.1537 14.6643V7.83299Z" fill="#403937"/>
<path d="M52.4976 4.08527C52.4976 1.41284 53.908 0.0766322 56.729 0.0766322C57.0935 0.0766322 57.5293 0.116165 58.0364 0.195231V2.94672C57.7828 2.9151 57.5451 2.89928 57.3233 2.89928C56.515 2.89928 56.1109 3.2788 56.1109 4.03783V4.25131H58.0364V7.05024H56.1109V18.246H52.4976V7.05024H51.1426V4.25131H52.4976V4.08527Z" fill="#403937"/>
<path d="M59.5084 4.08527C59.5084 1.41284 60.9189 0.0766322 63.7398 0.0766322C64.1043 0.0766322 64.5401 0.116165 65.0473 0.195231V2.94672C64.7937 2.9151 64.556 2.89928 64.3341 2.89928C63.5259 2.89928 63.1217 3.2788 63.1217 4.03783V4.25131H65.0473V7.05024H63.1217V18.246H59.5084V7.05024H58.1534V4.25131H59.5084V4.08527Z" fill="#403937"/>
<path d="M65.8774 14.261V7.83299C65.8774 6.63119 66.2498 5.69821 66.9947 5.03406C67.7396 4.35409 68.8648 4.01411 70.3703 4.01411C73.2705 4.01411 74.7206 5.28707 74.7206 7.83299V12.6481H69.3243V13.9764C69.3243 14.4508 69.4511 14.7908 69.7047 14.9964C69.9741 15.1861 70.5526 15.281 71.44 15.281C72.3434 15.281 73.3259 15.1229 74.3878 14.8066V17.9376C73.2784 18.2381 72.0898 18.3883 70.822 18.3883C67.5256 18.3883 65.8774 17.0125 65.8774 14.261ZM69.3243 9.92033H71.4163V7.88043C71.4163 7.27953 71.0676 6.97908 70.3703 6.97908C69.673 6.97908 69.3243 7.27953 69.3243 7.88043V9.92033Z" fill="#403937"/>
<path d="M76.1383 14.261V7.83299C76.1383 6.63119 76.5108 5.69821 77.2556 5.03406C78.0005 4.35409 79.1257 4.01411 80.6312 4.01411C83.5314 4.01411 84.9815 5.28707 84.9815 7.83299V12.6481H79.5853V13.9764C79.5853 14.4508 79.712 14.7908 79.9656 14.9964C80.235 15.1861 80.8135 15.281 81.7009 15.281C82.6043 15.281 83.5868 15.1229 84.6487 14.8066V17.9376C83.5393 18.2381 82.3507 18.3883 81.0829 18.3883C77.7865 18.3883 76.1383 17.0125 76.1383 14.261ZM79.5853 9.92033H81.6772V7.88043C81.6772 7.27953 81.3285 6.97908 80.6312 6.97908C79.9339 6.97908 79.5853 7.27953 79.5853 7.88043V9.92033Z" fill="#403937"/>
<path d="M37.0788 26.9797C37.0788 25.8119 36.4612 25.2281 35.2258 25.2281H33.2558V35.874H35.2258C36.4612 35.874 37.0788 35.2771 37.0788 34.0834V26.9797ZM31.871 24.0214H35.3039C36.3441 24.0214 37.1308 24.2874 37.664 24.8194C38.1971 25.3513 38.4637 26.065 38.4637 26.9602V34.1224C38.4637 35.0436 38.2036 35.7702 37.6835 36.3022C37.1634 36.8341 36.3831 37.1001 35.3429 37.1001H31.871V24.0214Z" fill="#403937"/>
<path d="M40.7427 34.2781V28.8675C40.7427 27.9463 41.0028 27.2132 41.523 26.6683C42.0561 26.1104 42.8558 25.8314 43.9221 25.8314C44.9884 25.8314 45.7751 26.1104 46.2822 26.6683C46.8023 27.2132 47.0624 27.9463 47.0624 28.8675V32.254H42.1081V34.2197C42.1081 34.8036 42.2902 35.2382 42.6543 35.5237C43.0183 35.8091 43.584 35.9518 44.3512 35.9518C45.1184 35.9518 45.9116 35.8351 46.7308 35.6015V36.886C46.0807 37.0936 45.3069 37.1974 44.4097 37.1974C41.9651 37.1974 40.7427 36.2243 40.7427 34.2781ZM42.1081 31.1057H45.7361V28.8675C45.7361 27.6479 45.1314 27.0381 43.9221 27.0381C42.7128 27.0381 42.1081 27.6479 42.1081 28.8675V31.1057Z" fill="#403937"/>
<path d="M49.4332 23.0872H50.8181V37.1001H49.4332V23.0872Z" fill="#403937"/>
<path d="M54.1921 24.7804C53.633 24.7804 53.3534 24.482 53.3534 23.8852C53.3534 23.2883 53.633 22.9899 54.1921 22.9899C54.7643 22.9899 55.0504 23.2883 55.0504 23.8852C55.0504 24.482 54.7643 24.7804 54.1921 24.7804ZM53.5095 26.1039H54.8943V37.1001H53.5095V26.1039Z" fill="#403937"/>
<path d="M62.0329 26.026H63.4373L60.9796 37.1001H59.0291L56.5715 26.026H57.9953L59.0681 31.1057L60.0239 36.127C60.414 33.9732 61.0837 30.6062 62.0329 26.026Z" fill="#403937"/>
<path d="M64.9146 34.2781V28.8675C64.9146 27.9463 65.1747 27.2132 65.6948 26.6683C66.228 26.1104 67.0277 25.8314 68.094 25.8314C69.1603 25.8314 69.947 26.1104 70.4541 26.6683C70.9742 27.2132 71.2343 27.9463 71.2343 28.8675V32.254H66.28V34.2197C66.28 34.8036 66.462 35.2382 66.8261 35.5237C67.1902 35.8091 67.7559 35.9518 68.5231 35.9518C69.2903 35.9518 70.0835 35.8351 70.9027 35.6015V36.886C70.2525 37.0936 69.4788 37.1974 68.5816 37.1974C66.137 37.1974 64.9146 36.2243 64.9146 34.2781ZM66.28 31.1057H69.9079V28.8675C69.9079 27.6479 69.3033 27.0381 68.094 27.0381C66.8847 27.0381 66.28 27.6479 66.28 28.8675V31.1057Z" fill="#403937"/>
<path d="M77.194 25.9676H77.6817V27.2911H77.0185C76.5504 27.2911 76.1277 27.4143 75.7506 27.6609C75.6336 27.7387 75.3801 27.9139 74.99 28.1864V37.1001H73.6051V26.026H74.9314V26.8629C74.9704 26.837 75.068 26.7656 75.224 26.6488C75.3931 26.5321 75.4906 26.4672 75.5166 26.4542C75.5556 26.4283 75.6401 26.3764 75.7702 26.2985C75.9132 26.2207 76.0172 26.1752 76.0822 26.1623C76.1603 26.1363 76.2643 26.1039 76.3943 26.065C76.5894 26.0001 76.8559 25.9676 77.194 25.9676Z" fill="#403937"/>
<path d="M83.6152 26.026H85L81.9572 40H80.6309L81.2356 37.1001H80.5529L78.1342 26.026H79.5386L80.7089 31.5339L81.5671 36.127C81.8272 34.596 82.1133 33.0649 82.4254 31.5339L83.6152 26.026Z" fill="#403937"/>
</svg>
